<svg id="Layer_1" data-name="Layer 1" xmlns="http://www.w3.org/2000/svg" xmlns:xlink="http://www.w3.org/1999/xlink" viewBox="0 0 200 200"><defs><style>.cls-1{fill:url(#linear-gradient);}.cls-2{stroke-miterlimit:10;fill:url(#linear-gradient-2);stroke:url(#linear-gradient-3);}.cls-3{fill:url(#linear-gradient-4);}.cls-4{fill:url(#linear-gradient-5);}.cls-5{fill:url(#linear-gradient-6);}.cls-6{fill:url(#linear-gradient-7);}</style><linearGradient id="linear-gradient" x1="58.68" y1="159.41" x2="29.19" y2="40.19" gradientUnits="userSpaceOnUse"><stop offset="0.16" stop-color="#141414"/><stop offset="0.19" stop-color="#192027"/><stop offset="0.3" stop-color="#263e58"/><stop offset="0.41" stop-color="#315882"/><stop offset="0.53" stop-color="#3a6da5"/><stop offset="0.64" stop-color="#417dc0"/><stop offset="0.76" stop-color="#4689d3"/><stop offset="0.87" stop-color="#4990de"/><stop offset="1" stop-color="#4a92e2"/></linearGradient><linearGradient id="linear-gradient-2" x1="64.6" y1="136.54" x2="181.24" y2="69.76" xlink:href="#linear-gradient"/><linearGradient id="linear-gradient-3" x1="40.29" y1="119.13" x2="194.5" y2="119.13" xlink:href="#linear-gradient"/><linearGradient id="linear-gradient-4" x1="48.01" y1="99.69" x2="68.02" y2="137.28" xlink:href="#linear-gradient"/><linearGradient id="linear-gradient-5" x1="80.53" y1="128.81" x2="52.15" y2="96.87" gradientUnits="userSpaceOnUse"><stop offset="0.16" stop-color="#141414"/><stop offset="0.17" stop-color="#151718"/><stop offset="0.3" stop-color="#253d42"/><stop offset="0.43" stop-color="#335c64"/><stop offset="0.57" stop-color="#3d737f"/><stop offset="0.71" stop-color="#448492"/><stop offset="0.85" stop-color="#498f9d"/><stop offset="1" stop-color="#4a92a1"/></linearGradient><linearGradient id="linear-gradient-6" x1="70.81" y1="137.45" x2="42.43" y2="105.51" xlink:href="#linear-gradient-5"/><linearGradient id="linear-gradient-7" x1="83.53" y1="126.15" x2="55.15" y2="94.21" xlink:href="#linear-gradient-5"/></defs><path class="cls-1" d="M14.28,37h17.2a.83.83,0,0,1,.83.82l.25,81.34A25.57,25.57,0,0,0,37.25,134c3.52,4.92,9.62,9.68,20.1,10.19,17.76-1,22.64-14.18,23.33-16.39a.14.14,0,0,1,.26,0L91.81,146S81,163.8,55.73,163C37,162.4,20.67,149.07,15.3,131.13c-2.55-8.48-1.84-17-1.84-25.69V37.81A.83.83,0,0,1,14.28,37Z"/><path class="cls-2" d="M79.1,107.78,111,162.59a.37.37,0,0,0,.63,0l15.52-25.86a.37.37,0,0,1,.63,0l15,25.84a.37.37,0,0,0,.64,0L194,76.43a.37.37,0,0,0-.31-.55l-21-.26a.38.38,0,0,0-.32.18L143.56,125a.36.36,0,0,1-.63,0l-4.43-7.61a.39.39,0,0,1,0-.38l24.06-40.72a.37.37,0,0,0-.31-.56H141a.38.38,0,0,0-.32.18l-13,21.91a.37.37,0,0,1-.63,0L114,75.67a.34.34,0,0,0-.32-.18l-21,.26a.36.36,0,0,0-.31.55L116.21,117a.39.39,0,0,1,0,.38l-4.41,7.36a.37.37,0,0,1-.63,0L94.55,96.43a38,38,0,0,0-6.12-7.88c-7.38-7.25-23.29-18.16-47.14-9.88a.76.76,0,0,0-.5.71V99a.74.74,0,0,0,1.15.62c3.93-2.62,17.28-10,30.15.07A28.67,28.67,0,0,1,79.1,107.78Z"/><path class="cls-3" d="M70.94,103.52a2.24,2.24,0,0,0-.4.53,30.9,30.9,0,0,0-13.93,3.11,2.51,2.51,0,0,0-.32-.25,28.8,28.8,0,0,1,4-5.78,1.78,1.78,0,1,0-1-.84A38.05,38.05,0,0,0,55,106.51a2.43,2.43,0,0,0-2.38,3.18,24,24,0,0,0-8.06,11.61,1.8,1.8,0,0,0-.4,0,26.78,26.78,0,0,1-2.83-9.62,2.35,2.35,0,0,0,.78-.53,2.43,2.43,0,1,0-3.43,0,2.37,2.37,0,0,0,1.33.68c.16,3.48,2.25,8.49,3,10.21a1.78,1.78,0,0,0,.2,2.26l.2.16a38.21,38.21,0,0,0-.54,8,1.85,1.85,0,0,0-.32.25,1.77,1.77,0,0,0,2.51,2.51,1.77,1.77,0,0,0-.89-3,29.41,29.41,0,0,1,.51-7.4,33.24,33.24,0,0,0,19.44,13.16,2.43,2.43,0,1,0,2.23-2.75c-6.93-16.3,3-26,5.19-27.89a2.43,2.43,0,1,0-.65-3.9ZM45.85,124.24a1.77,1.77,0,0,0-.08-2.42l-.11-.11a24.37,24.37,0,0,1,7.69-10.95l.19.15c-2.69,15,6.22,23.1,9.7,25.65C53.47,134.28,47.47,126.56,45.85,124.24Zm19.46,11.42a2.54,2.54,0,0,0-.45.36l-.09.1c-12.35-10.08-10.86-21.27-10-24.76a2.43,2.43,0,0,0,2.52-3.09,26.48,26.48,0,0,1,13-2.55,3.57,3.57,0,0,0,.1.35C57.34,119.46,64.3,133.77,65.31,135.66Z"/><circle class="cls-4" cx="73.31" cy="120.69" r="1.59"/><circle class="cls-5" cx="45.71" cy="109.2" r="0.84"/><circle class="cls-6" cx="73.05" cy="114.35" r="0.84"/></svg>