<svg id="Layer_1" data-name="Layer 1" xmlns="http://www.w3.org/2000/svg" xmlns:xlink="http://www.w3.org/1999/xlink" viewBox="0 0 917 131"><defs><style>.cls-1{fill:url(#linear-gradient);}.cls-2{fill:url(#linear-gradient-2);}.cls-3{fill:url(#linear-gradient-3);}.cls-4{fill:url(#linear-gradient-4);}.cls-5{fill:url(#linear-gradient-5);}.cls-6{fill:url(#linear-gradient-6);}.cls-7{fill:#2e3030;}</style><linearGradient id="linear-gradient" x1="56.49" y1="122.52" x2="28.19" y2="8.1" gradientUnits="userSpaceOnUse"><stop offset="0.16" stop-color="#141414"/><stop offset="0.19" stop-color="#192027"/><stop offset="0.3" stop-color="#263e58"/><stop offset="0.41" stop-color="#315882"/><stop offset="0.53" stop-color="#3a6da5"/><stop offset="0.64" stop-color="#417dc0"/><stop offset="0.76" stop-color="#4689d3"/><stop offset="0.87" stop-color="#4990de"/><stop offset="1" stop-color="#4a92e2"/></linearGradient><linearGradient id="linear-gradient-2" x1="62.17" y1="100.57" x2="174.12" y2="36.48" xlink:href="#linear-gradient"/><linearGradient id="linear-gradient-3" x1="46.25" y1="65.2" x2="65.45" y2="101.28" xlink:href="#linear-gradient"/><linearGradient id="linear-gradient-4" x1="77.46" y1="93.15" x2="50.22" y2="62.5" gradientUnits="userSpaceOnUse"><stop offset="0.16" stop-color="#141414"/><stop offset="0.17" stop-color="#151718"/><stop offset="0.3" stop-color="#253d42"/><stop offset="0.43" stop-color="#335c64"/><stop offset="0.57" stop-color="#3d737f"/><stop offset="0.71" stop-color="#448492"/><stop offset="0.85" stop-color="#498f9d"/><stop offset="1" stop-color="#4a92a1"/></linearGradient><linearGradient id="linear-gradient-5" x1="68.13" y1="101.45" x2="40.89" y2="70.79" xlink:href="#linear-gradient-4"/><linearGradient id="linear-gradient-6" x1="80.34" y1="90.6" x2="53.1" y2="59.94" xlink:href="#linear-gradient-4"/></defs><path class="cls-1" d="M13.88,5H30.39a.8.8,0,0,1,.79.79l.24,78.07a24.58,24.58,0,0,0,4.5,14.22c3.38,4.72,9.24,9.3,19.29,9.78,17-1,21.73-13.6,22.4-15.72a.14.14,0,0,1,.25,0l10.43,17.56S78,126.74,53.66,126c-18-.57-33.65-13.37-38.81-30.59-2.44-8.13-1.76-16.29-1.76-24.65V5.81A.79.79,0,0,1,13.88,5Z"/><path class="cls-2" d="M76.09,73l30.64,52.62a.35.35,0,0,0,.6,0l14.9-24.82a.35.35,0,0,1,.6,0l14.39,24.81a.36.36,0,0,0,.61,0l48.49-82.69a.35.35,0,0,0-.3-.53L165.9,42.1a.35.35,0,0,0-.31.18L138,89.52a.36.36,0,0,1-.61,0l-4.25-7.31a.36.36,0,0,1,0-.36L156.2,42.76a.35.35,0,0,0-.3-.53H135.53a.36.36,0,0,0-.31.17l-12.51,21a.36.36,0,0,1-.61,0L109.59,42.15a.38.38,0,0,0-.31-.18l-20.13.25a.35.35,0,0,0-.3.53l22.85,39.1a.33.33,0,0,1,0,.36l-4.24,7.06a.35.35,0,0,1-.6,0L90.92,62.08A36.61,36.61,0,0,0,85,54.51C78,47.55,62.69,37.08,39.8,45a.71.71,0,0,0-.48.68V64.49a.71.71,0,0,0,1.1.6c3.77-2.52,16.59-9.64,28.94.06A27.55,27.55,0,0,1,76.09,73Z"/><path class="cls-3" d="M68.25,68.88a2.6,2.6,0,0,0-.38.51,29.38,29.38,0,0,0-13.37,3,2.42,2.42,0,0,0-.31-.25A28.11,28.11,0,0,1,58,66.58a1.69,1.69,0,0,0,1.7-.42,1.71,1.71,0,0,0,0-2.41,1.7,1.7,0,0,0-2.7,2,37.5,37.5,0,0,0-4,6,2.31,2.31,0,0,0-1.71.68,2.34,2.34,0,0,0-.57,2.37A23,23,0,0,0,43,85.94a2.56,2.56,0,0,0-.39,0,25.7,25.7,0,0,1-2.71-9.23,2.44,2.44,0,0,0,.75-.51,2.33,2.33,0,1,0-3.3,0,2.28,2.28,0,0,0,1.28.65c.15,3.34,2.16,8.15,2.89,9.8a1.73,1.73,0,0,0,.2,2.17l.19.16a36.25,36.25,0,0,0-.51,7.71,2.34,2.34,0,0,0-.31.24,1.71,1.71,0,0,0,0,2.41,1.7,1.7,0,0,0,2.41,0,1.71,1.71,0,0,0,0-2.41,1.65,1.65,0,0,0-.86-.46,28.22,28.22,0,0,1,.49-7.1A31.92,31.92,0,0,0,61.76,102a2.33,2.33,0,1,0,2.14-2.64c-6.65-15.65,2.9-25,5-26.77a2.33,2.33,0,1,0-.63-3.74ZM44.18,88.76a1.69,1.69,0,0,0-.08-2.32l-.1-.1a23.43,23.43,0,0,1,7.37-10.52,1.39,1.39,0,0,0,.19.15c-2.58,14.38,6,22.18,9.31,24.62C51.49,98.4,45.73,91,44.18,88.76Zm18.67,11a2.67,2.67,0,0,0-.43.34l-.08.09C50.48,90.5,51.91,79.75,52.73,76.4a2.32,2.32,0,0,0,2.42-3A25.52,25.52,0,0,1,67.62,71a1.89,1.89,0,0,0,.09.34C55.2,84.18,61.88,97.91,62.85,99.73Z"/><circle class="cls-4" cx="70.54" cy="85.36" r="1.52"/><circle class="cls-5" cx="44.04" cy="74.33" r="0.81"/><circle class="cls-6" cx="70.28" cy="79.28" r="0.81"/><path class="cls-7" d="M242.56,83.47a16.29,16.29,0,0,1,4.71,11.77v6.46a17,17,0,0,1-17.12,17H213.22V48.52h17a17,17,0,0,1,17,17V71.8A16.16,16.16,0,0,1,242.56,83.47Zm-12.32-5.26a6.1,6.1,0,0,0,4.51-1.85,6.16,6.16,0,0,0,1.85-4.56V65.59a6.22,6.22,0,0,0-1.8-4.5,6.37,6.37,0,0,0-4.56-2h-6.4V78.21Zm0,29.9a6.4,6.4,0,0,0,6.36-6.41V95.34a6.32,6.32,0,0,0-6.36-6.41h-6.4v19.18Z"/><path class="cls-7" d="M266.9,111.36a7.36,7.36,0,0,1-7.36,7.37h-3.26V62.54h3.31a5.67,5.67,0,0,1,4.76,2.55,16.32,16.32,0,0,1,9-2.55h2.1V73.21h-2a6.46,6.46,0,0,0-4.46,1.7,6.23,6.23,0,0,0-2.05,4.66Z"/><path class="cls-7" d="M284.43,79.46a16.33,16.33,0,0,1,5-12,16.61,16.61,0,0,1,12.06-5,17,17,0,0,1,17,17V101.7a17,17,0,0,1-17,17,17,17,0,0,1-17-17ZM295,101.7a6.39,6.39,0,1,0,12.77,0V79.46a6.39,6.39,0,0,0-12.77,0Z"/><path class="cls-7" d="M357.69,82.57l-5.31,30a7.75,7.75,0,0,1-2.5,4.41,7.12,7.12,0,0,1-4.76,1.71h-6.56L327.49,62.54h4.71A7.25,7.25,0,0,1,337,64.29a8.09,8.09,0,0,1,2.5,4.56l5.41,36.71,8.51-43h8.51l8.51,43,5.46-36.71a7.71,7.71,0,0,1,2.51-4.56,7.21,7.21,0,0,1,4.8-1.75h4.71l-11.07,56.19H370.3a7,7,0,0,1-4.7-1.71,7.54,7.54,0,0,1-2.61-4.41Z"/><path class="cls-7" d="M431,103.4a13.74,13.74,0,0,1-5,11.22,18.09,18.09,0,0,1-12,4.11,17,17,0,0,1-17-17h6.21a5.93,5.93,0,0,1,5.26,3.2,5.81,5.81,0,0,0,1,1.31,6.15,6.15,0,0,0,4.51,1.9,9,9,0,0,0,4.51-1c1.23-.64,1.85-1.86,1.85-3.66q0-3.86-11.67-9.21T396.94,78.71a15,15,0,0,1,5-11.61,17.24,17.24,0,0,1,12-4.56,17.11,17.11,0,0,1,17,17h-5.46a7.25,7.25,0,0,1-6.21-3.51,7.09,7.09,0,0,0-.95-1.1,6.33,6.33,0,0,0-4.76-1.75,6.71,6.71,0,0,0-4.16,1.45,4.83,4.83,0,0,0-1.9,4v.11q0,4.65,11.72,9.26T431,103.4Z"/><path class="cls-7" d="M450.63,94.49v7.11a6.62,6.62,0,0,0,1.75,4.46,6.3,6.3,0,0,0,9.16.15,6.91,6.91,0,0,0,.85-1,7.53,7.53,0,0,1,6.41-3.5h5.26a17,17,0,0,1-28.94,12.17A17.79,17.79,0,0,1,440,101.45V78.21a17.65,17.65,0,0,1,5.11-12.41A16.52,16.52,0,0,1,457,60.94a17,17,0,0,1,17,17V94.49ZM463.39,78a6.09,6.09,0,0,0-1.85-4.5A6.41,6.41,0,0,0,450.63,78v5.86h12.76Z"/><path class="cls-7" d="M493.69,111.36a7.36,7.36,0,0,1-7.36,7.37h-3.26V62.54h3.31a5.67,5.67,0,0,1,4.76,2.55,16.32,16.32,0,0,1,9-2.55h2.1V73.21h-2a6.46,6.46,0,0,0-4.46,1.7,6.23,6.23,0,0,0-2.05,4.66Z"/><path class="cls-7" d="M534.9,118.73,522.58,48.52h5.06a7.16,7.16,0,0,1,4.8,1.75A7.55,7.55,0,0,1,535,54.88l6.46,45.87,8.51-52.23h12.82l8.51,51.93,6.36-45.57a7.59,7.59,0,0,1,2.5-4.61,7.17,7.17,0,0,1,4.81-1.75H590l-12.32,70.21h-6.91A7.12,7.12,0,0,1,566,117a7.44,7.44,0,0,1-2.55-4.45L556.38,69l-7.16,43.57a7.66,7.66,0,0,1-2.51,4.4,7.15,7.15,0,0,1-4.8,1.76Z"/><path class="cls-7" d="M622.38,82.22V78a6.72,6.72,0,0,0-1.7-4.45,6.23,6.23,0,0,0-4.71-2,6.66,6.66,0,0,0-4.36,1.76s-.05,0-.05,0a15.09,15.09,0,0,1-10.77,4.55H599a17,17,0,0,1,34,0v40h-1.9a7.63,7.63,0,0,1-5.36-2.2,16.28,16.28,0,0,1-9.76,3.06,16.65,16.65,0,0,1-12.07-5,17.67,17.67,0,0,1-5-12.92q.06-12.72,12.87-16.58Zm0,11-8.51,1.7c-2.84,1.34-4.26,3.32-4.26,6a7.25,7.25,0,0,0,1.9,5.36,6.3,6.3,0,0,0,9,0,7.28,7.28,0,0,0,1.85-5.36Z"/><path class="cls-7" d="M648.27,62.54v-14h3.25a7.34,7.34,0,0,1,7.36,7.36v6.66h6.41V73.21h-6.41V101.6a6.77,6.77,0,0,0,1.45,4.16,10,10,0,0,0,1.76,1.5,7,7,0,0,1,3.2,5.91v5.56a16.92,16.92,0,0,1-17-17V73.21h-6.21V62.54Z"/><path class="cls-7" d="M684.92,101.7a6.49,6.49,0,0,0,6.41,6.41,6.1,6.1,0,0,0,4.66-2,6.51,6.51,0,0,0,1.7-4.46,2,2,0,0,1,.6-1.45,2.19,2.19,0,0,1,1.45-.55h8.62v2.1a17,17,0,0,1-29,12.17,17.83,17.83,0,0,1-5.11-12.42V79.87a17.76,17.76,0,0,1,5.11-12.47,16.53,16.53,0,0,1,11.92-4.86,17.11,17.11,0,0,1,17,17v2.05h-8.62a2,2,0,0,1-2-2.05,6.39,6.39,0,0,0-12.77,0Z"/><path class="cls-7" d="M728,63.74a18,18,0,0,1,18.43,3.36q5,4.56,5,12.47v39.16h-3.25a7.44,7.44,0,0,1-7.41-7.37V79.57a6.39,6.39,0,0,0-12.78,0v31.79a7.36,7.36,0,0,1-7.36,7.37h-3.25V48.52h3.25A7.34,7.34,0,0,1,728,55.88Z"/><path class="cls-7" d="M760.43,62.54h3.31a5.65,5.65,0,0,1,4.76,2.55,17,17,0,0,1,20.68,2.16,16.27,16.27,0,0,1,11.67-4.71,17,17,0,0,1,17,17v39.16h-3.25a7.36,7.36,0,0,1-7.36-7.37V79.57a6.39,6.39,0,1,0-12.77,0v31.79a7.37,7.37,0,0,1-7.42,7.37h-3.25V79.57a6.39,6.39,0,0,0-12.77,0v31.79a7.36,7.36,0,0,1-7.36,7.37h-3.26Z"/><path class="cls-7" d="M850.27,82.22V78a6.72,6.72,0,0,0-1.7-4.45,6.23,6.23,0,0,0-4.71-2,6.69,6.69,0,0,0-4.36,1.76s0,0,0,0a15,15,0,0,1-10.76,4.55h-1.8a17,17,0,0,1,34.05,0v40H859a7.61,7.61,0,0,1-5.35-2.2,16.33,16.33,0,0,1-9.77,3.06,16.67,16.67,0,0,1-12.07-5,17.7,17.7,0,0,1-5-12.92q0-12.72,12.86-16.58Zm0,11-8.51,1.7c-2.84,1.34-4.26,3.32-4.26,6a7.29,7.29,0,0,0,1.9,5.36,6.3,6.3,0,0,0,9,0,7.28,7.28,0,0,0,1.85-5.36Z"/><path class="cls-7" d="M878,65.09a17.06,17.06,0,0,1,26,14.48v39.16h-3.25a7.44,7.44,0,0,1-7.41-7.37V79.57a6.39,6.39,0,0,0-12.77,0v31.79a7.37,7.37,0,0,1-7.37,7.37H870V62.54h3.3A5.64,5.64,0,0,1,878,65.09Z"/></svg>